HIERARCHY
ROOT Hips
{
	OFFSET	0.00	0.00	0.00
	CHANNELS 6 Xposition Yposition Zposition Zrotation Xrotation Yrotation
	JOINT LeftUpLeg
	{
		OFFSET	 0.126116	-0.065224	 0.014019
		CHANNELS 3 Zrotation Xrotation Yrotation
		JOINT LeftLeg
		{
			OFFSET	 0.000000	 0.569914	 0.000000
			CHANNELS 3 Zrotation Xrotation Yrotation
			JOINT LeftFoot
			{
				OFFSET	 0.000000	 0.544423	 0.000000
				CHANNELS 3 Zrotation Xrotation Yrotation
				JOINT LeftToeBase
				{
					OFFSET	 0.000000	 0.207117	 0.000000
					CHANNELS 3 Zrotation Xrotation Yrotation
					End Site
					{
						OFFSET	 0.000000	 0.207117	 0.000000
					}
				}
			}
		}
	}
	JOINT RightUpLeg
	{
		OFFSET	-0.124023	-0.065224	 0.008373
		CHANNELS 3 Zrotation Xrotation Yrotation
		JOINT RightLeg
		{
			OFFSET	 0.000000	 0.570047	 0.000000
			CHANNELS 3 Zrotation Xrotation Yrotation
			JOINT RightFoot
			{
				OFFSET	 0.000000	 0.544354	 0.000000
				CHANNELS 3 Zrotation Xrotation Yrotation
				JOINT RightToeBase
				{
					OFFSET	 0.000000	 0.207540	 0.000000
					CHANNELS 3 Zrotation Xrotation Yrotation
					End Site
					{
						OFFSET	 0.000000	 0.207540	 0.000000
					}
				}
			}
		}
	}
	JOINT Spine
	{
		OFFSET	 0.000184	 0.117403	 0.007763
		CHANNELS 3 Zrotation Xrotation Yrotation
		JOINT Spine1
		{
			OFFSET	 0.000000	 0.137269	 0.000000
			CHANNELS 3 Zrotation Xrotation Yrotation
			JOINT Spine2
			{
				OFFSET	 0.000000	 0.156879	 0.000000
				CHANNELS 3 Zrotation Xrotation Yrotation
				JOINT LeftShoulder
				{
					OFFSET	 0.080501	 0.160143	 0.002496
					CHANNELS 3 Zrotation Xrotation Yrotation
					JOINT LeftArm
					{
						OFFSET	 0.000000	 0.164363	 0.000000
						CHANNELS 3 Zrotation Xrotation Yrotation
						JOINT LeftForeArm
						{
							OFFSET	 0.000000	 0.364576	 0.000000
							CHANNELS 3 Zrotation Xrotation Yrotation
							JOINT LeftHand
							{
								OFFSET	 0.000000	 0.360812	 0.000000
								CHANNELS 3 Zrotation Xrotation Yrotation
								JOINT LeftHandIndex1
								{
									OFFSET	 0.000000	 0.086006	 0.000000
									CHANNELS 3 Zrotation Xrotation Yrotation
									JOINT LeftHandIndex2
									{
										OFFSET	 0.000000	 0.047237	 0.000000
										CHANNELS 3 Zrotation Xrotation Yrotation
										JOINT LeftHandIndex3
										{
											OFFSET	-0.004284	 0.038165	 0.000551
											CHANNELS 3 Zrotation Xrotation Yrotation
											End Site
											{
												OFFSET	-0.004284	 0.038165	 0.000551
											}
										}
									}
								}
							}
						}
					}
				}
				JOINT Neck
				{
					OFFSET	 0.000000	 0.176489	 0.000000
					CHANNELS 3 Zrotation Xrotation Yrotation
					JOINT Head
					{
						OFFSET	 0.000000	 0.077941	 0.001747
						CHANNELS 3 Zrotation Xrotation Yrotation
						End Site
						{
							OFFSET	 0.000000	 0.077941	 0.001747
						}
					}
				}
				JOINT RightShoulder
				{
					OFFSET	-0.080363	 0.159706	-0.000306
					CHANNELS 3 Zrotation Xrotation Yrotation
					JOINT RightArm
					{
						OFFSET	 0.000000	 0.164196	 0.000000
						CHANNELS 3 Zrotation Xrotation Yrotation
						JOINT RightForeArm
						{
							OFFSET	 0.000000	 0.365611	 0.000000
							CHANNELS 3 Zrotation Xrotation Yrotation
							JOINT RightHand
							{
								OFFSET	 0.000000	 0.360648	 0.000000
								CHANNELS 3 Zrotation Xrotation Yrotation
								JOINT RightHandIndex1
								{
									OFFSET	 0.000000	 0.069977	 0.000000
									CHANNELS 3 Zrotation Xrotation Yrotation
									JOINT RightHandIndex2
									{
										OFFSET	 0.000000	 0.052305	 0.000000
										CHANNELS 3 Zrotation Xrotation Yrotation
										JOINT RightHandIndex3
										{
											OFFSET	 0.009002	 0.042196	 0.000782
											CHANNELS 3 Zrotation Xrotation Yrotation
											End Site
											{
												OFFSET	 0.009002	 0.042196	 0.000782
											}
										}
									}
								}
							}
						}
					}
				}
			}
		}
	}
}
MOTION
Frames:    4
Frame Time: 0.03333334
 0.447784	 1.113904	 0.622601	-6.170330	-31.301070	-178.763900	 160.962000	 69.889090	 3.283209	 19.886580	-52.010760	 25.385820	 47.892540	 71.070120	-43.205710	 1.292262	 28.425850	-2.713146	 156.031600	 73.888790	 23.539520	-16.675730	-56.185190	-26.263240	-50.555090	 64.152950	 47.051530	-1.288183	 28.361890	 2.710176	-0.431143	 7.621519	-6.065394	-1.254228	 9.508128	-3.808486	 0.711882	 1.140332	 6.035527	-117.879500	 25.297660	 102.108100	 60.411480	 27.028570	 5.816437	 8.951829	-3.740055	-46.838980	 38.534240	-41.814510	 19.147030	-6.580301	 5.266122	 0.000000	 0.000000	 0.000000	 0.000000	 0.000000	 0.000000	 0.000000	 0.920539	 8.987000	-1.095819	-0.844953	-21.741050	 1.240624	 122.427700	 24.997270	-103.680900	-48.300620	 15.935200	 2.791666	-41.484940	 1.172412	 4.107481	-40.875810	-22.395200	-25.530490	 15.208500	 5.323790	 0.000000	 0.000000	 0.000000	 0.000000	 0.000000	 0.000000	 0.000000
 0.445132	 1.142211	 0.612644	-4.415880	-28.250250	-177.414600	 166.349900	 63.599960	-0.970953	 16.864450	-47.518990	 23.244600	 44.351540	 70.152040	-39.843000	 1.292262	 28.425850	-2.713146	 161.765900	 67.006320	 20.176420	-13.892020	-51.320860	-23.611090	-47.840510	 63.999510	 44.394280	-1.288183	 28.361890	 2.710176	 0.094988	 6.273654	-4.861841	-0.143966	 12.644660	-3.042333	 0.751476	-3.611526	 4.104629	-113.683200	 21.432630	 99.261860	 63.860760	 33.659750	-1.307430	 9.187034	-3.645982	-44.746430	 48.298740	-36.319140	 21.861730	-6.580301	 5.266122	 0.000000	 0.000000	 0.000000	 0.000000	 0.000000	 0.000000	 0.000000	-0.486623	-1.674458	-0.971066	-0.182541	-12.259800	 0.620696	 118.775700	 22.006860	-101.195600	-47.788040	 21.145920	 2.294821	-48.148040	 1.441680	 2.943062	-38.978490	-26.516170	-27.553070	 15.208500	 5.323790	 0.000000	 0.000000	 0.000000	 0.000000	 0.000000	 0.000000	 0.000000
 0.444287	 1.166683	 0.597339	-2.707370	-24.557710	-176.031500	 170.036800	 56.770790	-3.213292	 14.658030	-43.607460	 21.628100	 41.436950	 69.539310	-37.205400	 1.292262	 28.425850	-2.713146	 165.079400	 59.427680	 19.275750	-11.756800	-46.670940	-19.557960	-42.908060	 65.503470	 38.996820	-1.288183	 28.361890	 2.710176	 0.434172	 5.092196	-3.145106	 0.853154	 13.090920	-2.146013	 0.622195	-6.937820	 1.648640	-116.169900	 18.941830	 98.718160	 61.889900	 38.400560	 1.157643	 9.423424	-3.458256	-41.778920	 53.906370	-30.791710	 23.257690	-6.580301	 5.266122	 0.000000	 0.000000	 0.000000	 0.000000	 0.000000	 0.000000	 0.000000	-1.716792	-2.579970	-1.053487	 0.407403	-10.925650	-0.194553	 120.064800	 19.016080	-100.076900	-42.581070	 24.188210	-1.189674	-56.667590	 1.748855	 1.323241	-32.537390	-30.287960	-28.029400	 15.208500	 5.323790	 0.000000	 0.000000	 0.000000	 0.000000	 0.000000	 0.000000	 0.000000
 0.449792	 1.272177	 0.471990	 0.170327	-5.621090	-174.101500	 179.831900	 13.687000	-8.711205	 3.658166	-13.505060	 6.546773	 6.036676	 66.714390	-2.167679	 1.292262	 28.425850	-2.713146	 175.652800	 15.094660	 16.927980	-2.635349	-13.453410	 0.092570	-1.998299	 64.513920	-4.044576	-1.288183	 28.361890	 2.710176	 0.543625	 1.426574	 8.225784	-3.112402	 0.940794	 3.750167	 2.400688	-5.852407	-14.150580	-121.011000	 4.769794	 92.708310	 40.887370	 46.062770	 21.689270	 10.140260	-2.101514	-26.062930	 71.477770	 9.266987	 13.789790	-6.580301	 5.266122	 0.000000	 0.000000	 0.000000	 0.000000	 0.000000	 0.000000	 0.000000	 0.334160	 7.719893	-1.662863	 0.323866	-7.518090	-4.001483	 123.775700	 6.044885	-94.168120	-23.248450	 21.432900	-2.777801	-84.075540	 2.810639	-6.449965	 13.914860	-31.942980	-0.032727	 15.208500	 5.323790	 0.000000	 0.000000	 0.000000	 0.000000	 0.000000	 0.000000	 0.000000
